<svg width="1292" height="3572" viewBox="0 0 1292 3572" fill="none" xmlns="http://www.w3.org/2000/svg" shape-rendering="crispEdges">
<rect width="1292" height="3572" fill="#1E1E1E"/>
<path d="M1291 0H0V3572H1291V0Z" fill="#393E46"/>
<path d="M1291.66 2679.32C1225.58 2684.96 1159.65 2690.48 1123.96 2657.12C1088.41 2623.64 1083.11 2551.16 1032.23 2524.04C981.2 2496.92 884.45 2515.16 857.933 2488.76C831.56 2462.36 875.563 2391.32 869.113 2339.96C862.663 2288.6 805.903 2256.8 749 2225H1291.66V2679.32Z" fill="#3F4C56"/>
<path d="M1291.66 2565.68C1242.07 2569.88 1192.62 2574.08 1165.96 2549C1139.15 2523.92 1135.28 2469.56 1097.01 2449.28C1058.74 2428.88 986.217 2442.68 966.437 2422.88C946.513 2403.08 979.48 2349.8 974.75 2311.16C969.877 2272.64 927.307 2248.88 884.737 2225H1291.66V2565.68Z" fill="#4A6A71"/>
<path d="M1291.66 2452.16C1258.69 2454.92 1225.58 2457.8 1207.81 2441C1190.04 2424.32 1187.46 2388.08 1161.94 2374.52C1136.43 2360.96 1087.98 2370.08 1074.8 2356.88C1061.61 2343.68 1083.54 2308.16 1080.39 2282.48C1077.09 2256.8 1048.71 2240.84 1020.33 2225H1291.66V2452.16Z" fill="#5D8982"/>
<path d="M1291.66 2338.52C1275.18 2339.96 1258.69 2341.4 1249.81 2333C1240.78 2324.6 1239.49 2306.48 1226.73 2299.76C1213.97 2292.92 1189.89 2297.6 1183.3 2291C1176.56 2284.4 1187.6 2266.64 1186.02 2253.68C1184.45 2240.84 1170.26 2232.92 1156.07 2225H1291.66V2338.52Z" fill="#6D9886"/>
<path d="M1291.66 1770.68C1225.58 1765.04 1159.65 1759.52 1123.96 1792.88C1088.41 1826.36 1083.11 1898.84 1032.23 1925.96C981.2 1953.08 884.45 1934.84 857.933 1961.24C831.56 1987.64 875.563 2058.68 869.113 2110.04C862.663 2161.4 805.903 2193.2 749 2225H1291.66V1770.68Z" fill="#3F4C56"/>
<path d="M1291.66 1884.32C1242.07 1880.12 1192.62 1875.92 1165.96 1901C1139.15 1926.08 1135.28 1980.44 1097.01 2000.72C1058.74 2021.12 986.217 2007.32 966.437 2027.12C946.513 2046.92 979.48 2100.2 974.75 2138.84C969.877 2177.36 927.307 2201.12 884.737 2225H1291.66V1884.32Z" fill="#4A6A71"/>
<path d="M1291.66 1997.84C1258.69 1995.08 1225.58 1992.2 1207.81 2009C1190.04 2025.68 1187.46 2061.92 1161.94 2075.48C1136.43 2089.04 1087.98 2079.92 1074.8 2093.12C1061.61 2106.32 1083.54 2141.84 1080.39 2167.52C1077.09 2193.2 1048.71 2209.16 1020.33 2225H1291.66V1997.84Z" fill="#5D8982"/>
<path d="M1291.66 2111.48C1275.18 2110.04 1258.69 2108.6 1249.81 2117C1240.78 2125.4 1239.49 2143.52 1226.73 2150.24C1213.97 2157.08 1189.89 2152.4 1183.3 2159C1176.56 2165.6 1187.6 2183.36 1186.02 2196.32C1184.45 2209.16 1170.26 2217.08 1156.07 2225H1291.66V2111.48Z" fill="#6D9886"/>
<path d="M1289.66 912.891C1223.58 918.531 1157.65 924.051 1121.96 890.691C1086.41 857.211 1081.11 784.731 1030.23 757.611C979.2 730.491 882.45 748.731 855.933 722.331C829.56 695.931 873.563 624.891 867.113 573.531C860.663 522.171 803.903 490.371 747 458.571H1289.66V912.891Z" fill="#3F4C56"/>
<path d="M1289.66 799.251C1240.07 803.451 1190.62 807.651 1163.96 782.571C1137.15 757.491 1133.28 703.131 1095.01 682.851C1056.74 662.451 984.217 676.251 964.437 656.451C944.513 636.651 977.48 583.371 972.75 544.731C967.877 506.211 925.307 482.451 882.737 458.571H1289.66V799.251Z" fill="#4A6A71"/>
<path d="M1289.66 685.731C1256.69 688.491 1223.58 691.371 1205.81 674.571C1188.04 657.891 1185.46 621.651 1159.94 608.091C1134.43 594.531 1085.98 603.651 1072.8 590.451C1059.61 577.251 1081.54 541.731 1078.39 516.051C1075.09 490.371 1046.71 474.411 1018.33 458.571H1289.66V685.731Z" fill="#5D8982"/>
<path d="M1289.66 572.091C1273.18 573.531 1256.69 574.971 1247.81 566.571C1238.78 558.171 1237.49 540.051 1224.73 533.331C1211.97 526.491 1187.89 531.171 1181.3 524.571C1174.56 517.971 1185.6 500.211 1184.02 487.251C1182.45 474.411 1168.26 466.491 1154.07 458.571H1289.66V572.091Z" fill="#6D9886"/>
<path d="M1289.66 4.25089C1223.58 -1.38911 1157.65 -6.9091 1121.96 26.4509C1086.41 59.9309 1081.11 132.411 1030.23 159.531C979.2 186.651 882.45 168.411 855.933 194.811C829.56 221.211 873.563 292.251 867.113 343.611C860.663 394.971 803.903 426.771 747 458.571H1289.66V4.25089Z" fill="#3F4C56"/>
<path d="M1289.66 117.891C1240.07 113.691 1190.62 109.491 1163.96 134.571C1137.15 159.651 1133.28 214.011 1095.01 234.291C1056.74 254.691 984.217 240.891 964.437 260.691C944.513 280.491 977.48 333.771 972.75 372.411C967.877 410.931 925.307 434.691 882.737 458.571H1289.66V117.891Z" fill="#4A6A71"/>
<path d="M1289.66 231.411C1256.69 228.651 1223.58 225.771 1205.81 242.571C1188.04 259.251 1185.46 295.491 1159.94 309.051C1134.43 322.611 1085.98 313.491 1072.8 326.691C1059.61 339.891 1081.54 375.411 1078.39 401.091C1075.09 426.771 1046.71 442.731 1018.33 458.571H1289.66V231.411Z" fill="#5D8982"/>
<path d="M1289.66 345.051C1273.18 343.611 1256.69 342.171 1247.81 350.571C1238.78 358.971 1237.49 377.091 1224.73 383.811C1211.97 390.651 1187.89 385.971 1181.3 392.571C1174.56 399.171 1185.6 416.931 1184.02 429.891C1182.45 442.731 1168.26 450.651 1154.07 458.571H1289.66V345.051Z" fill="#6D9886"/>
<path d="M0 724.68C67.51 716.64 135.163 708.72 167.7 746.88C200.237 785.16 197.657 869.64 242.663 899.4C287.527 929.16 379.977 904.08 422.117 922.2C464.113 940.44 455.943 1001.76 467.553 1051.8C479.307 1101.84 510.983 1140.36 542.66 1179H0V724.68Z" fill="#3F4C56"/>
<path d="M0 838.32C50.74 832.32 101.337 826.32 125.703 855C150.213 883.68 148.207 947.04 182.033 969.36C215.717 991.56 284.947 972.84 316.623 986.4C348.157 1000.08 341.85 1046.16 350.737 1083.6C359.48 1121.16 383.273 1150.08 406.923 1179H0V838.32Z" fill="#4A6A71"/>
<path d="M0 951.84C33.8267 947.88 67.51 943.8 83.85 963C100.047 982.08 98.9 1024.32 121.26 1039.2C143.763 1054.08 190.06 1041.6 210.987 1050.6C232.057 1059.72 227.9 1090.44 233.777 1115.4C239.653 1140.36 255.42 1159.68 271.33 1179H0V951.84Z" fill="#5D8982"/>
<path d="M0 1065.48C16.9133 1063.44 33.8267 1061.4 41.8533 1071C50.0233 1080.6 49.45 1101.72 60.63 1109.16C71.9533 1116.48 95.03 1110.24 105.493 1114.8C116.1 1119.36 113.95 1134.72 116.96 1147.2C119.827 1159.68 127.71 1169.4 135.593 1179L0 1179V1065.48Z" fill="#6D9886"/>
<path d="M0 1633.32C67.51 1641.36 135.163 1649.28 167.7 1611.12C200.237 1572.84 197.657 1488.36 242.663 1458.6C287.527 1428.84 379.977 1453.92 422.117 1435.8C464.113 1417.56 455.943 1356.24 467.553 1306.2C479.307 1256.16 510.983 1217.64 542.66 1179H0V1633.32Z" fill="#3F4C56"/>
<path d="M0 1519.68C50.74 1525.68 101.337 1531.68 125.703 1503C150.213 1474.32 148.207 1410.96 182.033 1388.64C215.717 1366.44 284.947 1385.16 316.623 1371.6C348.157 1357.92 341.85 1311.84 350.737 1274.4C359.48 1236.84 383.273 1207.92 406.923 1179H0V1519.68Z" fill="#4A6A71"/>
<path d="M0 1406.16C33.8267 1410.12 67.51 1414.2 83.85 1395C100.047 1375.92 98.9 1333.68 121.26 1318.8C143.763 1303.92 190.06 1316.4 210.987 1307.4C232.057 1298.28 227.9 1267.56 233.777 1242.6C239.653 1217.64 255.42 1198.32 271.33 1179H0V1406.16Z" fill="#5D8982"/>
<path d="M0 1292.52C16.9133 1294.56 33.8267 1296.6 41.8533 1287C50.0233 1277.4 49.45 1256.28 60.63 1248.84C71.9533 1241.52 95.03 1247.76 105.493 1243.2C116.1 1238.64 113.95 1223.28 116.96 1210.8C119.827 1198.32 127.71 1188.6 135.593 1179L0 1179V1292.52Z" fill="#6D9886"/>
</svg>
