<svg xmlns="http://www.w3.org/2000/svg" version="1.1" xmlns:xlink="http://www.w3.org/1999/xlink" xmlns:svgjs="http://svgjs.com/svgjs" width="1440" height="560" preserveAspectRatio="none" viewBox="0 0 1440 560"><g mask="url(&quot;#SvgjsMask1029&quot;)" fill="none"><rect width="1440" height="560" x="0" y="0" fill="rgba(57, 62, 70, 1)"></rect><path d="M1512 560L0 560 L0 317.4Q71.02 268.42, 120 339.45Q126.7 274.15, 192 280.85Q257.75 226.61, 312 292.36Q366.44 274.8, 384 329.24Q432.17 257.41, 504 305.59Q566.37 295.95, 576 358.32Q615.44 277.76, 696 317.21Q714.81 264.01, 768 282.82Q833.57 228.38, 888 293.95Q968.4 254.36, 1008 334.76Q1032.64 287.4, 1080 312.05Q1109.61 269.66, 1152 299.27Q1237.86 265.13, 1272 350.99Q1313.68 272.68, 1392 314.36Q1440.28 242.63, 1512 290.91z" fill="rgba(63, 76, 86, 1)"></path><path d="M1488 560L0 560 L0 358.02Q66.58 304.6, 120 371.18Q190.91 370.09, 192 440.99Q229.89 358.88, 312 396.78Q383.49 348.26, 432 419.75Q500.88 368.63, 552 437.5Q586.49 351.99, 672 386.48Q741.78 336.26, 792 406.04Q832.29 326.33, 912 366.62Q954.23 336.85, 984 379.08Q1025.45 348.53, 1056 389.99Q1104.17 366.16, 1128 414.33Q1158.07 324.4, 1248 354.47Q1323.56 310.03, 1368 385.59Q1454.16 351.75, 1488 437.91z" fill="rgba(74, 106, 113, 1)"></path><path d="M1488 560L0 560 L0 491.89Q5.8 425.69, 72 431.49Q113.44 400.94, 144 442.38Q227.26 405.64, 264 488.9Q295.39 400.29, 384 431.68Q450.07 377.75, 504 443.82Q590.13 409.94, 624 496.07Q646.26 398.34, 744 420.6Q785.61 390.21, 816 431.81Q884.36 428.17, 888 496.53Q907.04 443.56, 960 462.6Q977.66 408.26, 1032 425.93Q1074.2 396.13, 1104 438.33Q1197.09 411.41, 1224 504.5Q1273.7 434.21, 1344 483.91Q1366.7 434.61, 1416 457.31Q1434.77 404.08, 1488 422.85z" fill="rgba(93, 137, 130, 1)"></path><path d="M1560 560L0 560 L0 574.1Q-0.49 501.62, 72 501.13Q126.83 435.96, 192 490.79Q254.31 481.11, 264 543.42Q309.12 516.53, 336 561.65Q339.12 492.76, 408 495.88Q502.02 469.9, 528 563.92Q538.95 502.87, 600 513.82Q645.13 486.95, 672 532.08Q730.24 518.32, 744 576.55Q747.14 507.69, 816 510.84Q881.14 455.98, 936 521.12Q1016.64 481.76, 1056 562.41Q1102.85 489.25, 1176 536.1Q1206.57 494.67, 1248 525.24Q1301.76 459, 1368 512.77Q1425.42 498.19, 1440 555.61Q1514.68 510.29, 1560 584.97z" fill="rgba(109, 152, 134, 1)"></path></g><defs><mask id="SvgjsMask1029"><rect width="1440" height="560" fill="#ffffff"></rect></mask></defs></svg>